<?xml version="1.0" encoding="UTF-8"?>
<!-- Created with Inkscape (http://www.inkscape.org/) -->
<svg width="76.748" height="63.452" version="1.1" viewBox="0 0 76.748 63.452" xmlns="http://www.w3.org/2000/svg" xmlns:cc="http://creativecommons.org/ns#" xmlns:dc="http://purl.org/dc/elements/1.1/" xmlns:rdf="http://www.w3.org/1999/02/22-rdf-syntax-ns#">
 <metadata>
  <rdf:RDF>
   <cc:Work rdf:about="">
    <dc:format>image/svg+xml</dc:format>
    <dc:type rdf:resource="http://purl.org/dc/dcmitype/StillImage"/>
    <dc:title/>
   </cc:Work>
  </rdf:RDF>
 </metadata>
 <g transform="translate(-211.26 -146.46)" stroke-width=".44893">
  <path d="m228.63 209.91-17.371-10.029c-0.0239-6.8247 0.0359-13.65-6e-3 -20.475 0.29041-18.384 15.353-33.093 33.738-32.947 0.33621 0.0145 0.67219 0.034 1.0078 0.0586v14.27c-6.8235-0.23346-13.541 3.3754-17.369 9.0059l17.371 10.029v20.059z" style="paint-order:markers stroke fill"/>
  <path d="m270.63 209.91-17.371-10.029c-0.0239-6.8247 0.0359-13.65-6e-3 -20.475 0.29041-18.384 15.353-33.093 33.738-32.947 0.33621 0.0145 0.67219 0.034 1.0078 0.0586v14.27c-6.8235-0.23346-13.541 3.3754-17.369 9.0059l17.371 10.029v20.059z" style="paint-order:markers stroke fill"/>
 </g>
</svg>
