<?xml version="1.0" encoding="UTF-8"?>
<!-- Created with Inkscape (http://www.inkscape.org/) -->
<svg version="1.1" viewBox="0 0 512 431" xmlns="http://www.w3.org/2000/svg" xmlns:cc="http://creativecommons.org/ns#" xmlns:dc="http://purl.org/dc/elements/1.1/" xmlns:rdf="http://www.w3.org/1999/02/22-rdf-syntax-ns#">
 <metadata>
  <rdf:RDF>
   <cc:Work rdf:about="">
    <dc:format>image/svg+xml</dc:format>
    <dc:type rdf:resource="http://purl.org/dc/dcmitype/StillImage"/>
    <dc:title/>
   </cc:Work>
  </rdf:RDF>
 </metadata>
 <path d="m210.86 0.00281c-107.63 16.312-210.86 90.351-210.86 245.19l1.167 120.29 46.31 27.361c30.946 18.29 62.349 38.154 68.977 38.154 5.4964-0.051 29.516-15.629 57.76-33.862 14.716-9.4999 56.593-31.996 56.593-31.996l-0.0961-102.84c-0.34446-36.794-64.419-62.186-115.31-92.408-14.79-10.502 40.34-68.016 90.821-73.21 22.172-4.5291 22.215-4.6293 22.215-49.894 0-43.314-0.79082-45.422-17.574-46.795zm281.19 0c-107.63 16.312-210.86 90.351-210.86 245.19l1.167 120.29 46.31 27.361c30.946 18.29 62.349 38.154 68.977 38.154 5.4964-0.051 29.516-15.629 57.76-33.862 14.716-9.4999 56.593-31.996 56.593-31.996l-0.0961-102.84c-0.34446-36.794-64.419-62.186-115.31-92.408-14.79-10.502 40.34-68.016 90.821-73.21 22.172-4.5291 22.215-4.6293 22.215-49.894 0-43.314-0.79082-45.422-17.574-46.795z" fill="#ffae01"/>
</svg>
