<?xml version="1.0" encoding="UTF-8"?>
<!-- Created with Inkscape (http://www.inkscape.org/) -->
<svg version="1.1" viewBox="0 0 710.43 1024" xmlns="http://www.w3.org/2000/svg" xmlns:cc="http://creativecommons.org/ns#" xmlns:dc="http://purl.org/dc/elements/1.1/" xmlns:rdf="http://www.w3.org/1999/02/22-rdf-syntax-ns#">
 <metadata>
  <rdf:RDF>
   <cc:Work rdf:about="">
    <dc:format>image/svg+xml</dc:format>
    <dc:type rdf:resource="http://purl.org/dc/dcmitype/StillImage"/>
    <dc:title/>
   </cc:Work>
  </rdf:RDF>
 </metadata>
 <path d="m231.7 837.93c-36.894-4.1637-73.233-24.976-95.726-54.824-4.2896-5.6923-26.243-42.91-54.514-92.419-26.033-45.589-50.969-88.962-55.415-96.386-13.751-22.964-17.334-30.883-22.081-48.804-2.7789-10.491-3.3884-15.129-3.8558-29.341-1.0335-31.423 5.3788-54.639 23.001-83.273 3.1412-5.1044 27.279-47.068 53.639-93.253s50.568-87.969 53.796-92.854c12.668-19.173 31.731-35.844 52.94-46.296 23.368-11.517 45.839-16.389 70.97-15.387 34.574 1.3786 64.669 10.548 94.265 28.719l7.0428 4.3242 4.334-2.6364c25.005-15.21 50.086-24.73 75.846-28.786 13.509-2.1274 41.502-1.875 52.55 0.47392 21.26 4.52 38.813 11.71 54.78 22.438 10.671 7.17 28.486 24.93 35.849 35.738 3.0449 4.4695 27.217 46.157 53.716 92.64s51.609 90.206 55.8 97.164c16.856 27.985 22.789 50.287 21.668 81.459-0.97104 27.015-7.8917 49.029-22.721 72.275-3.8226 5.9922-83.934 145.94-98.268 171.67-9.4342 16.932-16.949 27.185-27.809 37.94-22.444 22.227-51.423 36.006-82.994 39.463-12.671 1.3874-234.48 1.3458-246.81-0.0463zm242.38-29.788c29.466-4.3776 49.694-13.956 67.9-32.152 4.9058-4.9033 11.913-13.341 15.572-18.751 3.6588-5.4097 27.968-47.098 54.02-92.64s49.41-86.313 51.905-90.602c6.3114-10.848 13.414-29.194 15.825-40.877 3.9564-19.17 2.2511-42.063-4.4964-60.363-3.3503-9.0866-11.797-26.595-15.076-31.25-1.0597-1.5043-22.794-39.304-48.299-83.998s-49.546-86.115-53.426-92.044c-16.634-25.426-40.271-42.035-69.756-49.015-11.15-2.6396-41.161-2.6554-54.148-0.0284-13.072 2.6441-27.799 7.5824-39.329 13.187l-9.7516 4.7404 10.493 0.0908c5.7714 0.0499 13.824 0.79145 17.895 1.6478 63.36 13.328 133.42 90.825 149.44 165.3 2.7258 12.673 2.7847 36.8 0.11377 46.591-5.8775 21.546-20.4 36.569-40.292 41.681-12.468 3.2041-30.834 1.7472-47.115-3.7374-3.5716-1.2031-6.9267-2.1875-7.4557-2.1875-0.5292 0-1.2885 3.535-1.6874 7.8554-1.8744 20.304-10.301 53.442-19.77 77.742-16.984 43.586-49.219 86.851-82.639 110.91l-8.6163 6.2037-9.5617-7.3275c-12.251-9.3883-34.791-31.889-43.594-43.517-30.148-39.825-50.583-90.779-56.56-141.03-0.7442-6.2573-1.465-11.536-1.602-11.73-0.1368-0.19426-4.9096 1.1398-10.606 2.9645-30.826 9.8744-54.71 6.0573-71.881-11.488-6.6737-6.8191-12.701-18.606-14.956-29.247-2.0568-9.707-2.0151-28.79 0.09-40.972 6.2723-36.307 30.01-79.816 61.671-113.04 19.123-20.066 37.318-33.923 57.935-44.125 19.559-9.6783 32.136-12.774 49.628-12.218 6.1096 0.19443 11.107 0.2007 11.106 0.0139-0.011-0.9537-21.376-10.275-30.067-13.115-17.737-5.7962-35.264-8.6784-53.243-8.6239-8.0248 0.0243-16.25 2.0549-23.741 3.9932-28.061 7.2604-51.696 24.208-67.53 48.423-3.8968 5.9593-27.253 46.185-51.902 89.389-24.649 43.205-46.431 81.094-48.404 84.199-5.4375 8.5569-13.807 25.881-16.903 34.987-6.5348 19.222-7.9995 40.331-4.1072 59.191 2.4115 11.685 9.1766 29.13 15.702 40.492 2.5671 4.4695 25.611 44.695 51.208 89.389 52.336 91.382 50.259 87.899 59.428 99.683 17.732 22.79 38.697 36.865 63.041 42.324 19.994 4.4839 22.039 4.5555 133.84 4.684 93.845 0.10792 109.58-0.10337 119.7-1.6073zm-102.14-173.93c7.1615-7.6128 17.951-20.672 17.951-21.727 0-0.19425-15.359-0.35318-34.13-0.35318s-34.131 0.15893-34.131 0.35318c0 1.5261 12.297 15.854 21.872 25.484l11.684 11.752 4.2449-3.362c2.3346-1.8491 7.9636-7.3151 12.509-12.147zm30.367-52.803 7.5401-0.69942 5.1248-11.377c5.2421-11.637 14.2-37.36 15.583-44.748 0.7348-3.925 0.6512-4.0889-1.7978-3.5214-6.8617 1.59-38.726 3.9941-60.536 4.5673-28.25 0.74251-64.571-1.1998-84.904-4.5403-3.0506-0.50115-3.0878-0.44496-2.3471 3.5509 1.9777 10.67 17.661 52.495 20.872 55.664 2.6276 2.5928 75.752 3.3964 100.47 1.104zm-13.022-85.806c14.607-0.99356 35.649-3.3278 44.676-4.9563 3.435-0.6196 3.4395-0.62966 4.1007-8.9124 0.3639-4.5607 0.8641-9.5709 1.1114-11.134 0.3952-2.4978-0.6998-3.7-9.0479-9.934-5.2237-3.9008-14.515-11.863-20.648-17.695l-11.15-10.602-86.991-0.1862-11.544 11.045c-6.3492 6.0746-15.212 13.805-19.694 17.179-7.5579 5.6885-8.119 6.3854-7.717 9.5846 0.2385 1.8976 0.7278 7.1853 1.0873 11.751l0.6536 8.3005 6.6886 1.1492c7.4566 1.2811 35.652 4.2304 45.695 4.7799 15.348 0.83966 47.814 0.64872 62.779-0.36919zm131.34-35.534c24.35-12.522 20.478-59.599-8.9274-108.52-9.6886-16.119-20.421-29.768-34.56-43.949-20.909-20.973-39.077-33.326-59.45-40.423-9.3583-3.2603-19.378-5.2188-28.881-3.3236-4.6656 0.93042-9.4699 3.252-12.468 6.9457-5.6053 6.905-7.9151 15.866-7.9151 25.48 0 0 0.6431 17.521 1.9607 26.169 0.8742 5.7366 3.9288 16.959 3.9288 16.959 11.194 29.965 27.242 54.306 52.338 79.386 19.435 19.422 36.891 31.748 54.974 38.816 14.574 5.6964 30.727 6.7158 39 2.4613zm-296.51-1.2234c45.943-16.317 94.624-69.55 112.68-123.22 0 0 2.2029-8.475 2.9033-12.791 1.5282-9.4146 3.8227-18.99 2.8171-28.474-0.9242-8.7163-2.0596-18.615-8.0186-25.043-7.6213-8.2212-30.08-8.973-54.584 3.0149-46.153 22.579-89.327 76.495-103.15 128.81-3.5996 13.628-4.1202 33.444-1.1055 42.08 2.4282 6.9556 8.5421 14.184 14.26 16.86 6.2869 2.9419 24.256 2.2919 34.191-1.2368zm150.21-56.936c-0.3475-0.90575-2.5073-4.4407-4.7995-7.8554-2.2921-3.4147-6.5005-10.524-9.3518-15.798l-5.1842-9.5898-5.6167 10.132c-3.0891 5.5724-7.3309 12.813-9.4261 16.091-2.0952 3.2776-4.1762 6.5688-4.6244 7.3137-0.6404 1.0642 3.5177 1.3544 19.41 1.3544 17.65 0 20.144-0.20964 19.593-1.6468zm-32.105-201.94c-10.729-2.9284-18.231-7.286-26.109-15.165-7.4166-7.4175-10.632-12.596-14.126-22.752-8.7016-25.292 3.3161-55.292 27.102-67.655 17.993-9.3522 35.36-9.3522 53.353 0 23.786 12.363 35.804 42.363 27.102 67.655-3.4945 10.157-6.7096 15.335-14.132 22.758-14.606 14.607-34.469 20.268-53.19 15.158zm25.695-30.295c8.5991-4.3869 15.478-15.533 15.478-25.078 0-9.5481-6.8131-20.583-15.556-25.197-3.3781-1.7824-6.365-2.3683-12.073-2.3683-5.7082 0-8.695 0.58592-12.073 2.3683-8.7433 4.6134-15.556 15.649-15.556 25.197 0 11.787 8.7324 23.338 20.58 27.223 4.3412 1.4236 14.411 0.29858 19.201-2.1451z" fill="#020101" stroke-width="1.0835"/>
</svg>
