<?xml version="1.0" encoding="UTF-8"?>
<!-- Created with Inkscape (http://www.inkscape.org/) -->
<svg width="72.835" height="61.379" version="1.1" viewBox="0 0 72.835 61.379" xmlns="http://www.w3.org/2000/svg" xmlns:cc="http://creativecommons.org/ns#" xmlns:dc="http://purl.org/dc/elements/1.1/" xmlns:rdf="http://www.w3.org/1999/02/22-rdf-syntax-ns#">
 <metadata>
  <rdf:RDF>
   <cc:Work rdf:about="">
    <dc:format>image/svg+xml</dc:format>
    <dc:type rdf:resource="http://purl.org/dc/dcmitype/StillImage"/>
    <dc:title/>
   </cc:Work>
  </rdf:RDF>
 </metadata>
 <g transform="translate(-334.9 -148.73)">
  <g transform="matrix(1 0 0 -1 81.388 359.32)">
   <path d="m270.07 149.21c-0.94281 0-5.4102 2.8274-9.8125 5.4321l-6.5869 3.8972-0.16678 17.13c0 22.051 14.686 32.596 29.997 34.919 2.3875-0.19551 2.5-0.49572 2.5-6.6641 0-6.4462-6e-3 -6.4605-3.1602-7.1055-7.1812-0.73953-15.025-8.9294-12.921-10.425 7.2402-4.3042 16.356-7.9221 16.405-13.162l0.0141-14.643s-5.9576-3.2041-8.0511-4.557c-4.0179-2.5965-7.4353-4.8149-8.2172-4.8222z"/>
  </g>
  <g transform="matrix(1 0 0 -1 121.39 359.32)">
   <path d="m270.07 149.21c-0.94281 0-5.4102 2.8274-9.8125 5.4321l-6.5869 3.8972-0.16678 17.13c0 22.051 14.686 32.596 29.997 34.919 2.3875-0.19551 2.5-0.49572 2.5-6.6641 0-6.4462-6e-3 -6.4605-3.1602-7.1055-7.1812-0.73953-15.025-8.9294-12.921-10.425 7.2402-4.3042 16.356-7.9221 16.405-13.162l0.0141-14.643s-5.9576-3.2041-8.0511-4.557c-4.0179-2.5965-7.4353-4.8149-8.2172-4.8222z"/>
  </g>
 </g>
</svg>
