<?xml version="1.0" encoding="UTF-8"?>
<!-- Created with Inkscape (http://www.inkscape.org/) -->
<svg version="1.1" viewBox="0 0 710.43 1024" xmlns="http://www.w3.org/2000/svg" xmlns:cc="http://creativecommons.org/ns#" xmlns:dc="http://purl.org/dc/elements/1.1/" xmlns:rdf="http://www.w3.org/1999/02/22-rdf-syntax-ns#">
 <metadata>
  <rdf:RDF>
   <cc:Work rdf:about="">
    <dc:format>image/svg+xml</dc:format>
    <dc:type rdf:resource="http://purl.org/dc/dcmitype/StillImage"/>
    <dc:title/>
   </cc:Work>
  </rdf:RDF>
 </metadata>
 <path d="m308.02 59.77-9.9706 10.623-9.9708 10.623 4.2364 4.5938c5.264 5.7109 12.926 16.1 15.674 21.254l2.9648 4.6816 2.8008-3.3828c4.1919-5.061 8.3232-8.4509 14.811-12.154l5.8378-3.334-6.9531-9.6523c-3.3342-4.8736-9.0699-12.099-12.746-16.057zm95.41 0.17188-6.6525 7.1094c-3.6591 3.91-9.3076 11.149-12.717 15.971l-6.7538 9.5527 5.9707 3.334c6.082 3.3948 16.75 13.023 16.75 15.117 0 0.63517 3.5379-3.9116 7.0137-9.2578 3.476-5.3462 8.6714-12.316 11.547-15.488l5.2285-5.7676-10.193-10.285zm-49.971 51.924c-22.65 0.79954-38.501 30.215-25.43 49.293 8.5954 15.836 31.498 21.559 46.031 10.412 15.753-10.851 19.167-36.305 4.7558-49.711-5.855-6.3819-14.469-10.171-23.146-9.9824-0.7441-0.0351-1.4804-0.0375-2.211-0.0117zm1.5762 246.69c-0.3584 0.64545-0.7159 1.2901-1.0742 1.9356-7.5291 14.382-16.181 28.183-24.221 42.312 4.8627 8.764 16.184 4.4657 23.914 5.4102 7.9538-0.0527 18.635 2.613 24.402-4.291 2.3374-7.7725-6.2941-12.616-8.6309-19.221-5.0633-8.5672-9.612-17.423-14.391-26.146zm-22.703 68.797c-8.0317 0.6006-16.658-1.0207-24.442 1.4043-12.138 13.356-27.78 23.428-39.648 36.857-2.2865 7.4875 1.4475 15.182 0.5449 22.742 1.4398 6.7794 9.1333 8.6445 15.066 8.168 50.758 7.0173 102.67 6.8142 153.21-1.7324 8.3821-4.6155 4.8894-15.469 7.1329-23.061 0.2171-10.016-10.893-13.641-16.889-19.43-9.7726-8.0675-18.484-17.842-28.99-24.791-21.994 0.0918-43.987-0.23524-65.98-0.15821zm-50.287 88.578c-5.3689-5e-3 -7.9217 6.5154-5.373 10.781 4.3624 18.805 12.03 36.726 19.826 54.285 4.9096 7.2774 14.723 4.5431 21.978 5.8359 30.242 1.8397 60.668 0.79569 90.832-1.3164 8.127-2.2164 7.9999-12.434 11.662-18.352 6.3582-15.246 13.084-30.976 14.486-47.531-2.7173-6.3694-10.498-2.4782-15.404-2.4277-45.812 5.1697-92.278 5.2092-138.01-1.2754zm103.72 91.258c-1.4125-0.01-2.7698 0.0989-3.8691 0.21875-13.133-0.13845-26.267-0.14122-39.4-0.10937-8.966 0.5486-18.412-1.1278-27.158 1.9434 5.8967 16.26 20.764 26.579 31.728 39.199 3.7403 2.5822 7.1397 11.34 11.358 4.8672 13.78-11.528 26.942-24.557 36.111-40.029 0.2068-4.9734-4.532-6.0598-8.7695-6.0898z" fill="#fdbf17" stroke-width="1.0835"/>
</svg>
