<?xml version="1.0" encoding="UTF-8"?>
<!-- Created with Inkscape (http://www.inkscape.org/) -->
<svg version="1.1" viewBox="0 0 512 431" xmlns="http://www.w3.org/2000/svg" xmlns:cc="http://creativecommons.org/ns#" xmlns:dc="http://purl.org/dc/elements/1.1/" xmlns:rdf="http://www.w3.org/1999/02/22-rdf-syntax-ns#">
 <metadata>
  <rdf:RDF>
   <cc:Work rdf:about="">
    <dc:format>image/svg+xml</dc:format>
    <dc:type rdf:resource="http://purl.org/dc/dcmitype/StillImage"/>
    <dc:title/>
   </cc:Work>
  </rdf:RDF>
 </metadata>
 <path d="m114.35 0c-5.4964 0.0512-29.516 15.629-57.76 33.862-14.716 9.4999-56.593 31.996-56.593 31.996l0.096108 102.82c0.34445 36.794 64.419 62.199 115.31 92.422 14.79 10.502-40.34 68.016-90.822 73.21-22.173 4.5291-22.215 4.6293-22.215 49.894 0 43.314 0.79082 45.422 17.574 46.795 107.63-16.312 210.86-90.365 210.86-245.2l-1.167-120.28-46.31-27.374c-30.946-18.29-62.35-38.14-68.977-38.14zm281.2 0c-5.4964 0.0512-29.516 15.629-57.76 33.862-14.716 9.4999-56.593 31.996-56.593 31.996l0.0961 102.82c0.34445 36.794 64.419 62.199 115.31 92.422 14.79 10.502-40.34 68.016-90.822 73.21-22.173 4.5291-22.215 4.6293-22.215 49.894 0 43.314 0.79082 45.422 17.574 46.795 107.63-16.312 210.86-90.365 210.86-245.2l-1.167-120.28-46.31-27.374c-30.946-18.29-62.35-38.14-68.977-38.14z" fill="#ffae00"/>
</svg>
