<?xml version="1.0" standalone="no"?>
<!DOCTYPE svg PUBLIC "-//W3C//DTD SVG 20010904//EN"
 "http://www.w3.org/TR/2001/REC-SVG-20010904/DTD/svg10.dtd">
<svg version="1.0" xmlns="http://www.w3.org/2000/svg"
 width="1024.000000pt" height="1024.000000pt" viewBox="0 0 1024.000000 1024.000000"
 preserveAspectRatio="xMidYMid meet">
<metadata>
Created by potrace 1.11, written by Peter Selinger 2001-2013
</metadata>
<g transform="translate(0.000000,1024.000000) scale(0.100000,-0.100000)"
fill="#000000" stroke="none">
<path d="M3298 9824 c-2 -1 -32 -5 -68 -8 -207 -21 -508 -131 -710 -261 -242
-155 -459 -366 -631 -610 -46 -65 -299 -489 -299 -501 0 -3 -44 -77 -78 -129
-6 -11 -15 -26 -19 -34 -3 -8 -35 -64 -71 -125 -36 -61 -73 -126 -84 -144 -46
-82 -110 -193 -321 -559 -125 -216 -235 -407 -245 -425 -11 -18 -40 -68 -66
-111 -25 -43 -46 -81 -46 -83 0 -2 -11 -22 -25 -44 -13 -21 -77 -130 -141
-242 -64 -112 -142 -246 -172 -298 -154 -265 -251 -520 -288 -755 -3 -16 -10
-55 -16 -85 -16 -86 -18 -429 -2 -550 19 -142 78 -400 103 -448 5 -9 19 -44
32 -77 39 -105 122 -262 303 -574 97 -167 176 -304 176 -306 0 -2 166 -290
203 -350 13 -22 127 -220 254 -440 769 -1337 770 -1338 900 -1500 285 -356
655 -606 1039 -704 81 -21 93 -23 214 -40 66 -10 327 -7 390 4 121 21 290 65
347 91 17 8 34 14 38 14 17 0 237 116 313 166 179 117 398 318 517 474 27 36
52 67 55 70 18 14 170 258 170 272 0 2 -273 3 -608 3 -334 0 -636 4 -672 9
-56 7 -102 16 -215 41 -183 41 -467 188 -625 323 -205 175 -289 290 -550 750
-58 102 -96 169 -105 184 -5 9 -35 61 -66 115 -30 54 -134 235 -231 403 -460
800 -607 1062 -641 1140 -37 89 -91 260 -100 320 -3 19 -11 69 -17 110 -12 75
-16 354 -6 387 3 10 8 38 11 63 11 86 55 250 90 341 32 83 116 260 135 284 4
6 50 84 102 175 103 179 427 742 600 1043 59 104 108 191 108 195 0 3 6 13 14
21 7 9 27 41 43 71 29 55 134 237 241 420 226 386 586 659 1011 766 183 47
181 47 861 51 338 3 617 6 619 9 2 2 -7 21 -21 41 -14 21 -46 71 -72 111 -26
40 -51 79 -56 85 -5 7 -38 48 -72 92 -193 247 -446 455 -716 590 -98 50 -281
117 -349 130 -15 2 -39 7 -53 10 -81 19 -171 28 -292 30 -76 1 -139 1 -140 -1z"/>
<path d="M6699 9826 c-2 -2 -34 -7 -71 -10 -38 -4 -112 -18 -165 -31 -449
-109 -865 -411 -1165 -845 -70 -102 -131 -200 -126 -205 2 -2 284 -5 628 -8
344 -2 641 -7 660 -11 19 -4 71 -14 115 -22 201 -39 450 -147 620 -269 151
-108 307 -268 405 -416 23 -35 148 -248 278 -474 129 -225 311 -543 405 -705
93 -162 179 -311 189 -330 11 -19 93 -161 181 -315 190 -331 228 -406 273
-542 133 -396 114 -801 -54 -1183 -25 -58 -86 -175 -135 -260 -50 -85 -101
-175 -115 -200 -14 -25 -80 -139 -147 -255 -66 -115 -124 -217 -128 -225 -4
-8 -17 -31 -28 -50 -29 -48 -270 -466 -392 -680 -55 -96 -109 -191 -121 -211
-12 -20 -59 -103 -106 -184 -125 -216 -233 -352 -395 -496 -51 -45 -185 -138
-250 -174 -27 -15 -54 -30 -60 -34 -43 -32 -290 -118 -400 -141 -186 -38 -183
-38 -873 -39 l-553 -1 17 -33 c9 -17 50 -82 90 -143 168 -251 396 -482 629
-636 178 -117 435 -225 605 -254 14 -3 31 -7 37 -9 33 -11 163 -19 298 -18
355 2 690 123 1015 367 255 191 454 426 652 771 42 72 134 231 205 355 72 124
139 241 150 260 11 19 79 136 150 260 416 719 508 878 523 905 10 17 77 134
150 260 73 127 141 244 150 260 46 80 81 141 90 155 26 39 108 204 142 284 61
143 114 323 134 451 3 17 7 35 9 42 26 78 26 518 0 668 -54 304 -136 519 -320
835 -81 139 -178 308 -206 357 -37 65 -248 429 -268 463 -11 19 -24 42 -28 50
-4 8 -61 107 -126 220 -66 113 -131 225 -145 250 -14 25 -82 142 -150 260 -69
118 -134 231 -145 250 -10 19 -41 72 -68 118 -27 45 -49 84 -49 86 0 2 -18 34
-41 71 -39 64 -49 82 -100 173 -124 218 -254 420 -329 506 -345 403 -718 634
-1150 712 -78 14 -380 30 -391 20z"/>
<path d="M4027 8064 c-1 -1 -19 -5 -40 -8 -65 -10 -218 -66 -337 -122 -252
-120 -441 -258 -514 -373 -24 -37 -25 -43 -12 -64 7 -12 36 -65 63 -117 69
-132 118 -220 153 -280 16 -28 30 -53 30 -55 0 -2 19 -36 43 -77 24 -40 46
-80 50 -88 4 -8 17 -31 28 -50 12 -19 72 -123 134 -230 62 -107 183 -314 270
-460 87 -146 166 -278 175 -295 9 -16 36 -60 58 -98 23 -37 42 -71 42 -76 0
-5 3 -11 8 -13 4 -1 16 -20 27 -40 11 -20 53 -92 93 -159 39 -67 72 -126 72
-130 0 -5 5 -9 10 -9 6 0 10 -4 10 -10 0 -5 22 -47 49 -92 l49 -83 -35 -65
c-20 -36 -41 -72 -48 -80 -7 -8 -16 -25 -19 -37 -4 -13 -12 -23 -17 -23 -5 0
-9 -5 -9 -12 0 -6 -18 -41 -39 -77 -21 -36 -117 -199 -211 -361 -160 -273
-266 -453 -429 -728 -367 -619 -592 -1017 -587 -1036 14 -55 193 -209 366
-316 173 -106 438 -215 539 -222 43 -2 46 -1 73 42 15 25 31 52 35 60 4 8 32
58 63 110 109 183 205 345 210 355 6 13 119 202 139 235 9 14 21 34 27 45 56
99 134 232 274 470 55 94 168 286 230 393 39 67 75 122 80 122 4 0 17 -17 28
-37 49 -93 57 -108 65 -111 4 -2 7 -7 7 -12 0 -7 58 -112 100 -180 23 -39 105
-178 122 -209 11 -20 42 -73 69 -119 27 -45 49 -87 49 -92 0 -6 5 -10 10 -10
6 0 10 -5 10 -10 0 -6 18 -40 40 -76 22 -36 40 -67 40 -69 0 -2 29 -52 63
-112 54 -92 234 -402 321 -553 14 -25 52 -91 83 -147 l58 -103 45 6 c124 16
387 136 585 269 70 46 143 98 163 116 65 55 162 152 162 162 0 5 -224 396
-499 870 -274 474 -506 876 -515 892 -9 17 -21 37 -26 45 -5 8 -37 62 -70 120
-33 58 -65 112 -70 120 -5 8 -22 38 -37 65 -15 28 -33 59 -40 70 -7 11 -20 36
-30 55 -10 19 -20 37 -23 40 -3 3 -22 32 -41 66 l-36 61 22 36 c12 21 25 34
30 29 4 -4 5 -2 2 5 -8 13 36 96 46 88 4 -3 5 -2 2 2 -6 7 64 136 77 141 4 2
8 8 8 13 0 7 169 307 265 469 18 30 44 75 57 100 14 25 65 113 113 195 48 83
99 170 113 195 14 25 42 74 64 109 21 34 38 65 38 67 0 2 17 32 38 66 21 35
42 70 46 78 4 8 12 24 19 35 13 22 92 158 125 215 11 19 85 149 166 288 80
140 146 257 146 261 0 11 -108 120 -165 167 -83 68 -247 171 -372 232 -132 64
-152 72 -273 112 -153 50 -138 53 -195 -46 -27 -48 -62 -107 -77 -133 -15 -25
-47 -79 -70 -119 -24 -41 -48 -81 -53 -90 -19 -31 -140 -240 -349 -600 -58
-100 -106 -187 -106 -192 0 -4 -3 -10 -7 -12 -5 -1 -17 -20 -28 -40 -11 -20
-49 -87 -85 -149 -36 -62 -76 -130 -89 -153 -13 -23 -48 -82 -77 -133 -30 -50
-54 -96 -54 -102 0 -6 -7 -8 -15 -5 -8 4 -15 10 -15 14 0 5 -23 46 -52 92 -28
46 -63 104 -77 130 -21 38 -184 319 -226 390 -5 9 -17 29 -26 45 -60 106 -108
188 -145 250 -24 40 -44 75 -44 77 0 2 -17 33 -38 67 -22 35 -50 84 -64 109
-14 25 -67 117 -118 205 -51 88 -104 180 -118 205 -14 25 -36 62 -49 82 -12
21 -23 40 -23 43 0 2 -14 27 -30 54 -22 35 -37 49 -51 48 -11 -1 -21 -2 -22
-3z"/>
</g>
</svg>
